<svg width="128" height="145" viewBox="0 0 128 145" fill="none" xmlns="http://www.w3.org/2000/svg">
<path d="M63.2655 28.5539C64.0663 29.0173 65.1 28.8007 65.6046 28.0252L67.5351 25.0585C68.1546 24.1066 67.8904 22.8294 66.9074 22.2606C65.9244 21.6917 64.6798 22.0962 64.1634 23.1077L62.5539 26.2601C62.1332 27.0842 62.4647 28.0905 63.2655 28.5539Z" fill="#FFD400"/>
<path d="M47.2644 24.2712C48.1897 24.2712 48.9778 23.5651 49.0255 22.6409L49.2081 19.1002C49.2664 17.9694 48.3967 17 47.2644 17C46.1321 17 45.2623 17.9694 45.3207 19.1002L45.5033 22.6409C45.5509 23.5651 46.339 24.2712 47.2644 24.2712Z" fill="#FFD400"/>
<path d="M31.2632 28.5539C32.064 28.0905 32.3955 27.0842 31.9748 26.2602L30.3654 23.1077C29.8489 22.0962 28.6043 21.6917 27.6213 22.2606C26.6383 22.8294 26.3741 24.1066 26.9936 25.0585L28.9241 28.0252C29.4287 28.8007 30.4624 29.0173 31.2632 28.5539Z" fill="#FFD400"/>
<path d="M19.5539 40.2632C20.0173 39.4624 19.8007 38.4287 19.0252 37.9241L16.0585 35.9936C15.1066 35.3741 13.8294 35.6383 13.2606 36.6213C12.6917 37.6043 13.0962 38.8489 14.1077 39.3654L17.2601 40.9748C18.0842 41.3955 19.0905 41.064 19.5539 40.2632Z" fill="#FFD400"/>
<path d="M13.6409 54.5033C14.5651 54.5509 15.2712 55.339 15.2712 56.2644C15.2712 57.1897 14.5651 57.9778 13.6409 58.0255L10.1002 58.2081C8.96943 58.2664 8 57.3967 8 56.2644C8 55.1321 8.96942 54.2623 10.1002 54.3207L13.6409 54.5033Z" fill="#FFD400"/>
<path d="M65.4965 36.4809C60.7028 32.0609 54.2989 29.361 47.2644 29.361C32.4061 29.361 20.361 41.4061 20.361 56.2644C20.361 57.3502 20.4253 58.421 20.5504 59.4731C24.8985 56.6299 30.0953 54.977 35.6782 54.977C37.9422 54.977 40.146 55.2495 42.257 55.7644C46.9301 46.4848 55.3308 39.3996 65.4965 36.4809Z" fill="#FFD400"/>
<path d="M35.6782 107.115C22.1694 107.115 11.2184 96.1639 11.2184 82.6552C11.2184 69.1464 22.1694 58.1954 35.6782 58.1954C38.6073 58.1954 41.4161 58.7103 44.0192 59.6545C49.155 47.0924 61.4979 38.2414 75.908 38.2414C94.9269 38.2414 110.345 53.6593 110.345 72.6782C110.345 73.516 110.315 74.3468 110.256 75.1697C116.007 77.8179 120 83.6324 120 90.3793C120 99.6222 112.507 107.115 103.264 107.115H35.6782Z" fill="white"/>
<path d="M95.3981 124.171L91.9586 117L88.519 124.171C88.1777 124.769 87.9822 125.463 87.9822 126.204C87.9822 128.441 89.7625 130.254 91.9586 130.254C94.1546 130.254 95.9349 128.441 95.9349 126.204C95.9349 125.463 95.7394 124.769 95.3981 124.171Z" fill="#64D2FF"/>
<path d="M83.4693 138.751L80.0296 131.58L76.5903 138.75C76.2488 139.348 76.0533 140.043 76.0533 140.784C76.0533 143.021 77.8335 144.834 80.0296 144.834C82.2257 144.834 84.0059 143.021 84.0059 140.784C84.0059 140.043 83.8105 139.349 83.4693 138.751Z" fill="#64D2FF"/>
<path d="M71.5402 124.171L68.1006 117L64.6611 124.171C64.3198 124.769 64.1243 125.463 64.1243 126.204C64.1243 128.441 65.9045 130.254 68.1006 130.254C70.2967 130.254 72.0769 128.441 72.0769 126.204C72.0769 125.463 71.8815 124.769 71.5402 124.171Z" fill="#64D2FF"/>
<path d="M60.2737 138.751L56.8343 131.58L53.3947 138.751C53.0534 139.349 52.858 140.043 52.858 140.784C52.858 143.021 54.6383 144.834 56.8343 144.834C59.0304 144.834 60.8107 143.021 60.8107 140.784C60.8107 140.043 60.6151 139.348 60.2737 138.751Z" fill="#64D2FF"/>
<path d="M48.345 124.171L44.9053 117L41.4659 124.171C41.1245 124.768 40.929 125.463 40.929 126.204C40.929 128.441 42.7093 130.254 44.9053 130.254C47.1014 130.254 48.8817 128.441 48.8817 126.204C48.8817 125.463 48.6862 124.769 48.345 124.171Z" fill="#64D2FF"/>
<path d="M36.4158 138.751L32.9763 131.58L29.5368 138.751C29.1955 139.348 29 140.043 29 140.784C29 143.021 30.7803 144.834 32.9763 144.834C35.1724 144.834 36.9527 143.021 36.9527 140.784C36.9527 140.043 36.7572 139.348 36.4158 138.751Z" fill="#64D2FF"/>
</svg>
