<svg width="128" height="128" viewBox="0 0 128 128" fill="none" xmlns="http://www.w3.org/2000/svg">
<path d="M33.1834 81.9112C19.275 81.9112 8 70.6362 8 56.7278C8 42.8194 19.275 31.5444 33.1834 31.5444C36.1992 31.5444 39.0912 32.0745 41.7712 33.0466C47.059 20.1128 59.767 11 74.6035 11C94.1851 11 110.059 26.874 110.059 46.4556C110.059 47.3182 110.028 48.1737 109.968 49.0208C115.889 51.7474 120 57.7339 120 64.6805C120 74.1968 112.286 81.9112 102.769 81.9112H33.1834Z" fill="white"/>
<path fill-rule="evenodd" clip-rule="evenodd" d="M23 92.28C23 90.4685 24.4685 89 26.28 89H101.72C103.531 89 105 90.4685 105 92.28C105 94.0915 103.531 95.56 101.72 95.56H26.28C24.4685 95.56 23 94.0915 23 92.28ZM23 105.4C23 103.588 24.4685 102.12 26.28 102.12H101.72C103.531 102.12 105 103.588 105 105.4C105 107.211 103.531 108.68 101.72 108.68H26.28C24.4685 108.68 23 107.211 23 105.4ZM26.28 115.24C24.4685 115.24 23 116.708 23 118.52C23 120.331 24.4685 121.8 26.28 121.8H101.72C103.531 121.8 105 120.331 105 118.52C105 116.708 103.531 115.24 101.72 115.24H26.28Z" fill="black" fill-opacity="0.4"/>
</svg>
